<svg width="119" height="34" viewBox="0 0 119 34" fill="none" xmlns="http://www.w3.org/2000/svg">
<path d="M58.0765 3.53918H55.5263V7.89823H57.9664C59.7328 7.89823 60.5602 6.98222 60.5602 5.67434C60.5602 4.49791 59.7977 3.53918 58.0765 3.53918ZM61.3209 15.6749C59.2308 11.3405 58.6853 10.1188 57.8136 10.1188H55.5263V15.6749H53.0656V1.31775H57.9229C61.6258 1.31775 63.0438 3.27875 63.0438 5.45664C63.0438 7.3741 61.933 8.6598 60.3852 9.13629V9.16011C61.0375 9.53144 61.7342 10.882 64.1316 15.6749H61.3209ZM47.7869 9.7245C47.4394 9.57334 47.0039 9.48626 46.1528 9.48626H43.0373V13.4518H45.9786C46.8717 13.4518 47.3958 13.3425 47.8099 13.1478C48.5083 12.8003 48.8566 12.1866 48.8566 11.361C48.8566 10.6183 48.4631 10.0309 47.7869 9.7245ZM47.0261 3.77578C46.6975 3.62461 46.3056 3.53671 45.6738 3.53671H43.0373V7.28537H45.5218C46.3056 7.28537 46.7854 7.15392 47.1329 6.95676C47.7006 6.63225 47.9841 6.08593 47.9841 5.38845C47.9841 4.66961 47.6563 4.08221 47.0261 3.77578ZM40.5742 15.6749V1.31446H45.8471C46.9809 1.31446 47.7204 1.48863 48.3324 1.77123C49.7916 2.46954 50.4464 3.79796 50.4464 5.01794C50.4464 6.39236 49.8779 7.32727 48.7235 8.02639V8.06993C50.379 8.4388 51.3822 9.59306 51.3822 11.338C51.3822 13.2768 50.2065 14.7589 48.201 15.3701C47.4813 15.587 46.6975 15.6749 45.4544 15.6749H40.5742ZM65.7526 1.31446H68.2149V15.6749H65.7526V1.31446ZM83.632 1.31446H86.0919V15.6749H83.632V1.31446ZM94.0457 1.18384C95.5936 1.18384 97.1628 1.55517 98.032 1.98976L97.9909 4.34346C96.7479 3.73388 95.4835 3.33954 93.9808 3.33954C92.6317 3.33954 91.4749 3.75606 91.4749 4.88896C91.4749 7.83005 98.8643 6.65361 98.8643 11.5113C98.8643 14.1928 96.5967 15.8893 93.3046 15.8893C91.0625 15.8893 89.5146 15.2575 88.4465 14.6077L89.4686 12.6023C90.3428 13.1478 91.7387 13.7352 93.3925 13.7352C94.8755 13.7352 96.2484 13.1667 96.2484 11.8613C96.2484 8.78631 88.9264 10.1386 88.9264 5.23646C88.9264 2.6207 91.0165 1.18384 94.0457 1.18384ZM110.521 1.31446H112.983V15.6749H110.521V9.48626H103.547V15.6749H101.084V1.31446H103.547V7.19829H110.521V1.31446ZM46.0115 18.197C47.5799 18.197 48.7777 18.5042 50.0003 19.0464L49.2576 21.1389C48.56 20.8136 47.644 20.4217 46.2744 20.4217C43.5492 20.4217 41.8509 22.7302 41.8509 25.5407C41.8509 28.3758 43.4399 30.6835 46.2744 30.6835C47.644 30.6835 48.56 30.2932 49.2576 29.963L50.0003 32.0579C48.7777 32.6009 47.5799 32.9057 46.0115 32.9057C41.717 32.9057 39.2563 29.8997 39.2563 25.585C39.2563 21.5546 41.717 18.197 46.0115 18.197ZM99.8913 18.197C101.461 18.197 102.658 18.5042 103.878 19.0464L103.138 21.1389C102.44 20.8136 101.524 20.4217 100.151 20.4217C97.4265 20.4217 95.7275 22.7302 95.7275 25.5407C95.7275 28.3758 97.3189 30.6835 100.151 30.6835C101.524 30.6835 102.44 30.2932 103.138 29.963L103.878 32.0579C102.658 32.6009 101.461 32.9057 99.8913 32.9057C95.596 32.9057 93.1337 29.8997 93.1337 25.585C93.1337 21.5546 95.596 18.197 99.8913 18.197ZM61.4803 25.5399C61.4803 22.4032 59.6958 20.3987 57.2754 20.3987C54.8575 20.3987 53.0689 22.4032 53.0689 25.562C53.0689 28.7028 54.8575 30.7048 57.2754 30.7048C59.6967 30.7048 61.4803 28.7028 61.4803 25.5399ZM64.0757 25.4947C64.0757 29.8118 61.3283 32.9049 57.2763 32.9049C53.1806 32.9049 50.4776 29.9194 50.4776 25.6072C50.4776 21.2925 53.2225 18.197 57.2763 18.197C61.3752 18.197 64.0757 21.1841 64.0757 25.4947ZM65.7403 27.2823V18.3284H68.2026V27.3711C68.2026 29.7658 69.4892 30.6613 71.5366 30.6613C73.6292 30.6613 74.8722 29.7658 74.8722 27.3711V18.3284H77.3345V27.2823C77.3345 31.1846 75.1097 32.9049 71.4955 32.9049C67.9413 32.9049 65.7403 31.1846 65.7403 27.2823ZM81.9626 22.2307H81.919C81.9626 22.708 81.9839 23.4712 81.9839 24.1482V32.6872H79.5216V18.3301H82.1811L88.8458 28.1129H88.891C88.8458 27.6331 88.8261 26.8699 88.8261 26.193V18.3301H91.2868V32.6872H89.1096L81.9626 22.2307ZM105.812 18.3284H108.271V32.6888H105.812V18.3284ZM112.983 30.4641H118.605V32.6888H110.521V18.3284H112.983V30.4641ZM70.0922 1.31693H81.7489V3.56136H77.1505V15.6749H74.6882V3.56136H70.0922V1.31693Z" fill="white"/>
<path d="M16.4249 8.21287C16.4249 12.7486 12.7477 16.4257 8.21205 16.4257C3.67719 16.4257 0 12.7486 0 8.21287C0 3.67719 3.67719 0 8.21205 0C12.7477 0.000821534 16.4249 3.67719 16.4249 8.21287ZM34 8.21287C34 12.7486 30.3228 16.4257 25.7871 16.4257C21.2523 16.4257 17.5751 12.7486 17.5751 8.21287C17.5751 3.67719 21.2523 0 25.7871 0C30.3228 0.000821534 34 3.67719 34 8.21287ZM16.4249 25.7879C16.4249 30.3245 12.7477 34 8.21205 34C3.67719 34 0 30.3245 0 25.7879C0 21.2514 3.67719 17.5759 8.21205 17.5759C12.7477 17.5759 16.4249 21.2514 16.4249 25.7879ZM34 25.7879C34 30.3245 30.3228 34 25.7871 34C21.2523 34 17.5751 30.3245 17.5751 25.7879C17.5751 21.2514 21.2523 17.5759 25.7871 17.5759C30.3228 17.5759 34 21.2514 34 25.7879Z" fill="white"/>
</svg>
